<svg width="800" height="600" xmlns="http://www.w3.org/2000/svg">
  <!-- Background -->
  <rect width="800" height="600" fill="#f5f7fa" />
  
  <!-- Header -->
  <rect width="800" height="50" fill="#0569ff" />
  <text x="20" y="30" font-family="Arial" font-size="16" fill="white">Feast Registry Visualization</text>
  <rect x="600" y="10" width="80" height="30" rx="5" fill="#ffffff" />
  <text x="615" y="30" font-family="Arial" font-size="12" fill="#0569ff">LR Layout</text>
  <rect x="690" y="10" width="80" height="30" rx="5" fill="#0569ff" opacity="0.7" />
  <text x="705" y="30" font-family="Arial" font-size="12" fill="white">TB Layout</text>
  
  <!-- Data Source Node -->
  <rect x="50" y="150" width="150" height="100" rx="5" fill="white" stroke="#dddddd" />
  <rect x="50" y="150" width="150" height="5" fill="#009688" />
  <text x="70" y="180" font-family="Arial" font-size="14" font-weight="bold" fill="#333333">customer_data</text>
  <rect x="70" y="190" width="70" height="20" rx="10" fill="#009688" opacity="0.2" />
  <text x="80" y="205" font-family="Arial" font-size="12" fill="#009688">Data Source</text>
  <text x="70" y="230" font-family="Arial" font-size="12" fill="#666666">Type: BigQuery</text>
  
  <!-- Entity Node -->
  <rect x="300" y="150" width="150" height="100" rx="5" fill="white" stroke="#dddddd" />
  <rect x="300" y="150" width="150" height="5" fill="#2196F3" />
  <text x="320" y="180" font-family="Arial" font-size="14" font-weight="bold" fill="#333333">customer</text>
  <rect x="320" y="190" width="50" height="20" rx="10" fill="#2196F3" opacity="0.2" />
  <text x="330" y="205" font-family="Arial" font-size="12" fill="#2196F3">Entity</text>
  <text x="320" y="230" font-family="Arial" font-size="12" fill="#666666">Join Keys: customer_id</text>
  
  <!-- Feature View Node 1 -->
  <rect x="550" y="100" width="150" height="100" rx="5" fill="white" stroke="#dddddd" />
  <rect x="550" y="100" width="150" height="5" fill="#FF9800" />
  <text x="570" y="130" font-family="Arial" font-size="14" font-weight="bold" fill="#333333">customer_features</text>
  <rect x="570" y="140" width="90" height="20" rx="10" fill="#FF9800" opacity="0.2" />
  <text x="580" y="155" font-family="Arial" font-size="12" fill="#FF9800">Feature View</text>
  <text x="570" y="180" font-family="Arial" font-size="12" fill="#666666">Features: age, income...</text>
  
  <!-- Feature View Node 2 -->
  <rect x="550" y="250" width="150" height="100" rx="5" fill="white" stroke="#dddddd" />
  <rect x="550" y="250" width="150" height="5" fill="#FF9800" />
  <text x="570" y="280" font-family="Arial" font-size="14" font-weight="bold" fill="#333333">transaction_features</text>
  <rect x="570" y="290" width="90" height="20" rx="10" fill="#FF9800" opacity="0.2" />
  <text x="580" y="305" font-family="Arial" font-size="12" fill="#FF9800">Feature View</text>
  <text x="570" y="330" font-family="Arial" font-size="12" fill="#666666">Features: amount, date...</text>
  
  <!-- Feature Service Node -->
  <rect x="550" y="400" width="150" height="100" rx="5" fill="white" stroke="#dddddd" />
  <rect x="550" y="400" width="150" height="5" fill="#E91E63" />
  <text x="570" y="430" font-family="Arial" font-size="14" font-weight="bold" fill="#333333">credit_score_service</text>
  <rect x="570" y="440" width="100" height="20" rx="10" fill="#E91E63" opacity="0.2" />
  <text x="580" y="455" font-family="Arial" font-size="12" fill="#E91E63">Feature Service</text>
  <text x="570" y="480" font-family="Arial" font-size="12" fill="#666666">Features: 12</text>
  
  <!-- Edges -->
  <!-- Data Source to Feature View -->
  <line x1="200" y1="200" x2="550" y2="150" stroke="#999999" stroke-width="2" />
  <polygon points="545,150 550,150 547,155" fill="#999999" />
  
  <!-- Entity to Feature View 1 -->
  <line x1="450" y1="175" x2="550" y2="150" stroke="#999999" stroke-width="2" />
  <polygon points="545,150 550,150 547,155" fill="#999999" />
  
  <!-- Entity to Feature View 2 -->
  <line x1="450" y1="200" x2="550" y2="275" stroke="#999999" stroke-width="2" />
  <polygon points="545,275 550,275 547,280" fill="#999999" />
  
  <!-- Feature View 1 to Feature Service -->
  <line x1="625" y1="200" x2="625" y2="400" stroke="#999999" stroke-width="2" />
  <polygon points="625,395 625,400 620,397" fill="#999999" />
  
  <!-- Feature View 2 to Feature Service -->
  <line x1="625" y1="350" x2="625" y2="400" stroke="#999999" stroke-width="2" />
  <polygon points="625,395 625,400 620,397" fill="#999999" />
  
  <!-- Controls -->
  <rect x="20" y="520" width="120" height="60" rx="5" fill="white" stroke="#dddddd" />
  <text x="45" y="550" font-family="Arial" font-size="12" fill="#666666">Controls</text>
  
  <!-- MiniMap -->
  <rect x="700" y="520" width="80" height="60" rx="5" fill="white" stroke="#dddddd" />
  <rect x="710" y="530" width="60" height="40" fill="#f5f7fa" stroke="#dddddd" />
  <text x="715" y="555" font-family="Arial" font-size="10" fill="#666666">MiniMap</text>
  
  <!-- Fit View Button -->
  <rect x="680" y="60" width="100" height="30" rx="5" fill="#0569ff" />
  <text x="705" y="80" font-family="Arial" font-size="12" fill="white">Fit View</text>
</svg>
